<svg width="22" height="23" viewBox="0 0 22 23" fill="none" xmlns="http://www.w3.org/2000/svg">
<g filter="url(#filter0_d_21_47)">
<path d="M11.0001 5.91687C9.8532 5.91687 8.91726 6.85281 8.91726 7.99968C8.91726 9.14656 9.8532 10.0825 11.0001 10.0825C12.1469 10.0825 13.0829 9.14656 13.0829 7.99968C13.0829 6.85281 12.1469 5.91687 11.0001 5.91687ZM17.2469 7.99968C17.2469 7.13718 17.2548 6.2825 17.2063 5.42156C17.1579 4.42156 16.9298 3.53406 16.1985 2.80281C15.4657 2.07 14.5798 1.84343 13.5798 1.795C12.7173 1.74656 11.8626 1.75437 11.0016 1.75437C10.1391 1.75437 9.28445 1.74656 8.42351 1.795C7.42351 1.84343 6.53601 2.07156 5.80476 2.80281C5.07195 3.53562 4.84539 4.42156 4.79695 5.42156C4.74851 6.28406 4.75632 7.13875 4.75632 7.99968C4.75632 8.86062 4.74851 9.71687 4.79695 10.5778C4.84539 11.5778 5.07351 12.4653 5.80476 13.1966C6.53757 13.9294 7.42351 14.1559 8.42351 14.2044C9.28601 14.2528 10.1407 14.245 11.0016 14.245C11.8641 14.245 12.7188 14.2528 13.5798 14.2044C14.5798 14.1559 15.4673 13.9278 16.1985 13.1966C16.9313 12.4637 17.1579 11.5778 17.2063 10.5778C17.2563 9.71687 17.2469 8.86218 17.2469 7.99968ZM11.0001 11.2044C9.22664 11.2044 7.79539 9.77312 7.79539 7.99968C7.79539 6.22625 9.22664 4.795 11.0001 4.795C12.7735 4.795 14.2048 6.22625 14.2048 7.99968C14.2048 9.77312 12.7735 11.2044 11.0001 11.2044ZM14.336 5.41218C13.9219 5.41218 13.5876 5.07781 13.5876 4.66375C13.5876 4.24968 13.9219 3.91531 14.336 3.91531C14.7501 3.91531 15.0844 4.24968 15.0844 4.66375C15.0846 4.76207 15.0653 4.85945 15.0277 4.95031C14.9902 5.04117 14.935 5.12372 14.8655 5.19325C14.796 5.26277 14.7134 5.31789 14.6226 5.35546C14.5317 5.39303 14.4343 5.41231 14.336 5.41218Z" fill="#1A1A27"/>
</g>
<defs>
<filter id="filter0_d_21_47" x="-1" y="0" width="24" height="24" filterUnits="userSpaceOnUse" color-interpolation-filters="sRGB">
<feFlood flood-opacity="0" result="BackgroundImageFix"/>
<feColorMatrix in="SourceAlpha" type="matrix" values="0 0 0 0 0 0 0 0 0 0 0 0 0 0 0 0 0 0 127 0" result="hardAlpha"/>
<feOffset dy="4"/>
<feGaussianBlur stdDeviation="2"/>
<feComposite in2="hardAlpha" operator="out"/>
<feColorMatrix type="matrix" values="0 0 0 0 0 0 0 0 0 0 0 0 0 0 0 0 0 0 0.25 0"/>
<feBlend mode="normal" in2="BackgroundImageFix" result="effect1_dropShadow_21_47"/>
<feBlend mode="normal" in="SourceGraphic" in2="effect1_dropShadow_21_47" result="shape"/>
</filter>
</defs>
</svg>
