<svg width="16" height="16" viewBox="0 0 16 16" fill="none" xmlns="http://www.w3.org/2000/svg">
<path d="M3.38481 6.30529C3.38481 5.78662 3.47547 5.29662 3.65414 4.83929C3.82484 4.39509 4.07846 3.9874 4.40147 3.63796C4.72383 3.2931 5.09272 2.99489 5.49747 2.75196C5.91275 2.50072 6.36234 2.31119 6.83214 2.18929C7.30762 2.06444 7.79721 2.00147 8.28881 2.00196C9.04814 2.00196 9.75481 2.16262 10.4101 2.48262C11.0569 2.79679 11.6074 3.27892 12.0041 3.87862C12.4135 4.48862 12.6168 5.17862 12.6168 5.94796C12.6168 6.40929 12.5715 6.86062 12.4788 7.30196C12.3878 7.74304 12.2432 8.17134 12.0481 8.57729C11.8622 8.97026 11.6191 9.33353 11.3268 9.65529C11.033 9.97193 10.6772 10.2247 10.2815 10.398C9.85188 10.5862 9.38716 10.681 8.91814 10.676C8.59214 10.676 8.26681 10.5993 7.94547 10.4453C7.62414 10.292 7.39347 10.0813 7.25481 9.81129C7.20614 9.99862 7.13947 10.2693 7.05081 10.6233C6.96547 10.9766 6.90814 11.2046 6.88281 11.308C6.85614 11.4106 6.80681 11.582 6.73481 11.8193C6.68598 11.9949 6.62334 12.1663 6.54747 12.332L6.31814 12.7813C6.21896 12.9741 6.10809 13.1607 5.98614 13.34C5.86547 13.5146 5.71614 13.7233 5.53814 13.9633L5.43881 13.9986L5.37281 13.9266C5.30147 13.1713 5.26481 12.7193 5.26481 12.57C5.26481 12.128 5.31747 11.632 5.42147 11.0813C5.52347 10.5313 5.68481 9.83996 5.90147 9.00862C6.11814 8.17796 6.24214 7.68929 6.27547 7.54462C6.12281 7.23329 6.04547 6.82662 6.04547 6.32662C6.04547 5.92729 6.17014 5.55329 6.42014 5.20129C6.67081 4.85062 6.98747 4.67529 7.37147 4.67529C7.66547 4.67529 7.89347 4.77262 8.05681 4.96796C8.22081 5.16262 8.30081 5.40796 8.30081 5.70729C8.30081 6.02462 8.19548 6.48396 7.98347 7.08462C7.77147 7.68596 7.66614 8.13462 7.66614 8.43262C7.66614 8.73462 7.77414 8.98729 7.99014 9.18529C8.20331 9.38339 8.4852 9.49074 8.77614 9.48462C9.04014 9.48462 9.28481 9.42462 9.51214 9.30396C9.73592 9.18683 9.92962 9.01959 10.0781 8.81529C10.4016 8.37149 10.6322 7.86697 10.7561 7.33196C10.8201 7.05062 10.8695 6.78329 10.9001 6.53196C10.9328 6.27929 10.9468 6.04062 10.9468 5.81396C10.9468 4.98262 10.6828 4.33462 10.1581 3.87062C9.63081 3.40662 8.94414 3.17596 8.09947 3.17596C7.13881 3.17596 6.33547 3.48662 5.69214 4.10996C5.04814 4.73129 4.72414 5.52129 4.72414 6.47929C4.72414 6.69062 4.75614 6.89462 4.81681 7.09196C4.87614 7.28862 4.94081 7.44529 5.01081 7.56129C5.08014 7.67529 5.14547 7.78662 5.20481 7.88929C5.26481 7.99196 5.29614 8.06529 5.29614 8.10929C5.29614 8.24396 5.26081 8.41929 5.18947 8.63596C5.11547 8.85262 5.02814 8.96062 4.92281 8.96062C4.91281 8.96062 4.87147 8.95329 4.79947 8.93796C4.55012 8.86351 4.32493 8.72435 4.14681 8.53462C3.95777 8.33799 3.80858 8.10662 3.70747 7.85329C3.60666 7.60086 3.52814 7.34008 3.47281 7.07396C3.41303 6.82214 3.38349 6.5641 3.38481 6.30529Z" fill="#1A1A27"/>
</svg>
