<svg width="35" height="20" viewBox="0 0 35 20" fill="none" xmlns="http://www.w3.org/2000/svg">
<path d="M22.7477 0C22.5353 0 22.3393 0.117649 22.2378 0.305887L11.753 19.1156C11.3703 19.7979 12.3853 20.3768 12.768 19.6944L23.2517 0.882366C23.4803 0.491772 23.1992 0 22.7477 0ZM26.2827 2.35298C26.4133 2.36003 26.5393 2.4118 26.6373 2.50004L34.797 9.55426C35.0677 9.78955 35.0677 10.2131 34.797 10.4484L26.6373 17.5014C26.0773 18.0073 25.3073 17.0873 25.8767 16.6108L33.523 10.0013L25.8767 3.39181C25.4473 3.02946 25.7227 2.35415 26.2827 2.35415V2.35298ZM8.71733 2.35298C8.58667 2.36003 8.46067 2.4118 8.36267 2.50004L0.203 9.55308C-0.0676667 9.78838 -0.0676667 10.2119 0.203 10.4472L8.36267 17.5003C8.92267 18.0061 9.69267 17.0861 9.12333 16.6097L1.477 10.0001L9.12333 3.39064C9.55267 3.02828 9.27733 2.35298 8.71733 2.35298Z" fill="url(#paint0_linear_9_30)"/>
<defs>
<linearGradient id="paint0_linear_9_30" x1="17.5" y1="0" x2="17.5" y2="20" gradientUnits="userSpaceOnUse">
<stop stop-color="#FB8706"/>
<stop offset="1" stop-color="#FD5901"/>
</linearGradient>
</defs>
</svg>
