<svg width="22" height="37" viewBox="0 0 22 37" fill="none" xmlns="http://www.w3.org/2000/svg">
<path d="M6.72063 0C5.92093 0 5.92582 1.23326 6.72063 1.23326H15.0869C15.9673 1.23326 15.9795 1.73643 15.7643 2.18288L11.0688 11.4324C10.8585 11.8443 11.1544 12.3326 11.6118 12.3326H20.2593C20.4427 12.3326 20.6542 12.4473 20.7362 12.6385C20.8217 12.8296 20.8523 13.1848 20.384 13.8101L5.28998 34.0011L7.32468 21.6832C7.38582 21.3071 7.09847 20.9642 6.72063 20.9655H1.87842C1.19733 20.9655 1.14475 20.7632 1.26091 19.8136L3.65756 1.93129C3.76761 1.11734 2.55339 0.952079 2.44701 1.7685L0.0479119 19.6508C-0.0437967 20.3365 -0.0254555 20.9433 0.296136 21.4514C0.61895 21.9607 1.23523 22.1987 1.87719 22.1987H5.99552L3.67101 36.2801C3.56585 36.9165 4.37778 37.2667 4.76173 36.7525L21.361 14.5537C22.0017 13.6979 22.1472 12.8198 21.8574 12.1489C21.564 11.478 20.9159 11.1006 20.258 11.1006H12.6108L16.8502 2.75141C17.08 2.29757 17.2365 1.69574 16.9969 1.07417C16.756 0.447674 16.0382 0 15.0845 0H6.72063Z" fill="url(#paint0_linear_9_28)"/>
<defs>
<linearGradient id="paint0_linear_9_28" x1="11" y1="0" x2="11" y2="37" gradientUnits="userSpaceOnUse">
<stop stop-color="#FB7901"/>
<stop offset="1" stop-color="#FF3F00"/>
</linearGradient>
</defs>
</svg>
