<svg width="20" height="21" viewBox="0 0 20 21" fill="none" xmlns="http://www.w3.org/2000/svg">
<g filter="url(#filter0_d_21_35)">
<path d="M16 4.27922C15.5507 4.47813 15.074 4.60841 14.586 4.66572C15.0998 4.35806 15.4843 3.87421 15.668 3.30422C15.1848 3.59058 14.6564 3.79279 14.1055 3.90222C13.768 3.54139 13.3297 3.29046 12.8477 3.18206C12.3656 3.07366 11.8621 3.11279 11.4026 3.29438C10.9431 3.47597 10.5489 3.79161 10.2712 4.20025C9.9935 4.60889 9.84517 5.09164 9.8455 5.58572C9.8455 5.77922 9.867 5.96672 9.9105 6.14622C8.93126 6.09802 7.97316 5.84402 7.09864 5.40077C6.22413 4.95753 5.45283 4.33499 4.835 3.57372C4.61549 3.94947 4.50035 4.37704 4.5015 4.81222C4.5015 5.66572 4.935 6.41972 5.597 6.86122C5.20598 6.84881 4.82363 6.74285 4.482 6.55222V6.58372C4.48166 7.1523 4.67821 7.70347 5.03826 8.14354C5.3983 8.58361 5.89961 8.88543 6.457 8.99772C6.09453 9.09712 5.71406 9.11183 5.345 9.04072C5.5022 9.52987 5.80827 9.9577 6.22044 10.2645C6.63261 10.5712 7.13031 10.7416 7.644 10.7517C7.13332 11.1526 6.54861 11.4487 5.92332 11.6233C5.29804 11.7979 4.64446 11.8475 4 11.7692C5.12526 12.4934 6.43537 12.8779 7.7735 12.8767C12.3025 12.8767 14.7795 9.12472 14.7795 5.87072C14.7795 5.76572 14.7755 5.65772 14.7715 5.55222C15.2528 5.20374 15.6687 4.77295 16 4.27972V4.27922Z" fill="#1A1A27"/>
</g>
<defs>
<filter id="filter0_d_21_35" x="-2" y="0" width="24" height="24" filterUnits="userSpaceOnUse" color-interpolation-filters="sRGB">
<feFlood flood-opacity="0" result="BackgroundImageFix"/>
<feColorMatrix in="SourceAlpha" type="matrix" values="0 0 0 0 0 0 0 0 0 0 0 0 0 0 0 0 0 0 127 0" result="hardAlpha"/>
<feOffset dy="4"/>
<feGaussianBlur stdDeviation="2"/>
<feComposite in2="hardAlpha" operator="out"/>
<feColorMatrix type="matrix" values="0 0 0 0 0 0 0 0 0 0 0 0 0 0 0 0 0 0 0.25 0"/>
<feBlend mode="normal" in2="BackgroundImageFix" result="effect1_dropShadow_21_35"/>
<feBlend mode="normal" in="SourceGraphic" in2="effect1_dropShadow_21_35" result="shape"/>
</filter>
</defs>
</svg>
