<svg width="23" height="23" viewBox="0 0 23 23" fill="none" xmlns="http://www.w3.org/2000/svg">
<path d="M1 3.91667C1 13.9038 9.09619 22 19.0833 22C19.5339 22 19.9806 21.9835 20.423 21.9511C20.9306 21.9139 21.1844 21.8954 21.4155 21.7624C21.6068 21.6522 21.7882 21.4569 21.8841 21.258C22 21.0179 22 20.7378 22 20.1777V16.8908C22 16.4197 22 16.1842 21.9224 15.9823C21.8541 15.8039 21.7427 15.6452 21.5985 15.5199C21.4353 15.378 21.2139 15.2975 20.7713 15.1365L17.03 13.776C16.5149 13.5888 16.2573 13.4951 16.013 13.511C15.7975 13.525 15.5902 13.5986 15.4141 13.7234C15.2143 13.8649 15.0734 14.0999 14.7914 14.57L13.8333 16.1667C10.7418 14.7665 8.23555 12.257 6.83333 9.16667L8.43007 8.20862C8.90003 7.92665 9.135 7.78566 9.27657 7.5859C9.4014 7.40976 9.47502 7.20243 9.48902 6.98698C9.50488 6.74265 9.4112 6.48512 9.22395 5.97006L7.86349 2.22874C7.7025 1.78605 7.62201 1.5647 7.48016 1.40145C7.35485 1.25724 7.19604 1.14601 7.01769 1.07753C6.81579 1 6.58026 1 6.10921 1H2.82234C2.26219 1 1.98211 1 1.74198 1.11579C1.54308 1.2117 1.34783 1.39318 1.23765 1.58453C1.10463 1.81558 1.08604 2.06939 1.04887 2.57702C1.01648 3.01934 1 3.46608 1 3.91667Z" stroke="url(#paint0_linear_42_3)" stroke-linecap="round" stroke-linejoin="round"/>
<defs>
<linearGradient id="paint0_linear_42_3" x1="11.5" y1="1" x2="11.5" y2="22" gradientUnits="userSpaceOnUse">
<stop stop-color="#FB8706"/>
<stop offset="0.723958" stop-color="#FF3F00"/>
</linearGradient>
</defs>
</svg>
