<svg width="25" height="20" viewBox="0 0 25 20" fill="none" xmlns="http://www.w3.org/2000/svg">
<path d="M6.09375 20C8.86719 20 11.2109 17.8682 11.2109 14.9225C11.2109 11.7442 8.86719 9.84496 6.09375 9.84496C4.96094 9.84496 3.90625 10.2713 3.125 10.8915C2.96875 10.4264 2.89062 9.92248 2.89062 9.22481C2.89062 6.12403 5.70312 2.7907 8.98438 1.43411L8.24219 0C2.57812 2.63566 0 7.09302 0 12.2481C0 13.5271 0.234375 15.7364 1.36719 17.4806C2.34375 18.9922 3.75 20 6.09375 20ZM19.6875 20C22.5 20 24.8047 17.8682 24.8047 14.9225C24.8047 11.7442 22.5 9.84496 19.6875 9.84496C18.5547 9.84496 17.5391 10.2713 16.7188 10.8915C16.5625 10.4264 16.4844 9.92248 16.4844 9.22481C16.4844 6.12403 19.2969 2.7907 22.5781 1.43411L21.8359 0C16.1719 2.63566 13.5938 7.09302 13.5938 12.2481C13.5938 13.5271 13.8281 15.7364 14.9609 17.4806C15.9375 18.9922 17.3828 20 19.6875 20Z" fill="url(#paint0_linear_21_115)"/>
<defs>
<linearGradient id="paint0_linear_21_115" x1="0.435241" y1="2.11538" x2="25.9142" y2="4.83169" gradientUnits="userSpaceOnUse">
<stop stop-color="#FB8706"/>
<stop offset="1" stop-color="#FF3F00"/>
</linearGradient>
</defs>
</svg>
